<svg width="163" height="48" viewBox="0 0 163 48" fill="none" xmlns="http://www.w3.org/2000/svg">
<path d="M67.9486 29.3548L66.7769 26.037H59.2057L58.0992 29.3548H54.1753L60.6259 10.9229H65.1295L71.6311 29.3548H67.9486ZM60.388 22.64H65.5752L62.9147 15.1093L60.388 22.64Z" fill="white"/>
<path d="M78.1102 29.7229C76.1262 29.7229 74.4717 29.0551 73.1467 27.7213C71.8217 26.3875 71.1592 24.7382 71.1592 22.7701C71.1592 20.8055 71.8217 19.1546 73.1467 17.819C74.4717 16.4852 76.1262 15.8174 78.1102 15.8174C79.3911 15.8174 80.5593 16.124 81.613 16.7389C82.6649 17.3538 83.4648 18.1784 84.0092 19.2145L81.0861 20.9271C80.8236 20.3827 80.4236 19.9527 79.888 19.6373C79.3523 19.3202 78.7515 19.1634 78.0837 19.1634C77.0653 19.1634 76.2231 19.5017 75.5553 20.1765C74.8875 20.8531 74.5545 21.7165 74.5545 22.7701C74.5545 23.8062 74.8875 24.6625 75.5553 25.3391C76.2231 26.0139 77.0653 26.3522 78.0837 26.3522C78.7691 26.3522 79.3788 26.1989 79.9144 25.8906C80.4501 25.5858 80.8483 25.1576 81.1126 24.6149L84.0621 26.2994C83.4824 27.3354 82.6666 28.1653 81.6147 28.7873C80.5593 29.4128 79.3911 29.7229 78.1102 29.7229Z" fill="white"/>
<path d="M94.5912 16.191H97.9883V29.3565H94.5912V27.8024C93.5728 29.0834 92.1439 29.7247 90.2991 29.7247C88.5442 29.7247 87.0394 29.0552 85.7832 27.7108C84.5286 26.3682 83.9014 24.7225 83.9014 22.7737C83.9014 20.825 84.5286 19.1811 85.7832 17.8367C87.0377 16.4941 88.5442 15.8228 90.2991 15.8228C92.1421 15.8228 93.5728 16.4641 94.5912 17.7451V16.191ZM88.3257 25.4449C89.0111 26.1391 89.8797 26.4844 90.9334 26.4844C91.9853 26.4844 92.8592 26.1391 93.5534 25.4449C94.2459 24.7524 94.593 23.8609 94.593 22.772C94.593 21.6848 94.2459 20.7933 93.5534 20.0991C92.861 19.4066 91.9871 19.0595 90.9334 19.0595C89.8797 19.0595 89.0111 19.4066 88.3257 20.0991C87.6403 20.7933 87.2984 21.6848 87.2984 22.772C87.2984 23.8609 87.6403 24.7524 88.3257 25.4449Z" fill="white"/>
<path d="M109.997 10.9243H113.394V29.3563H109.997V27.8022C108.996 29.0832 107.574 29.7246 105.731 29.7246C103.958 29.7246 102.445 29.055 101.188 27.7106C99.9339 26.368 99.3066 24.7223 99.3066 22.7736C99.3066 20.8248 99.9339 19.1809 101.188 17.8365C102.443 16.4939 103.958 15.8226 105.731 15.8226C107.574 15.8226 108.996 16.464 109.997 17.7449V10.9243ZM103.743 25.4447C104.436 26.1389 105.31 26.4843 106.363 26.4843C107.415 26.4843 108.286 26.1389 108.971 25.4447C109.656 24.7523 109.998 23.8607 109.998 22.7718C109.998 21.6847 109.656 20.7931 108.971 20.0989C108.286 19.4064 107.417 19.0593 106.363 19.0593C105.31 19.0593 104.438 19.4064 103.743 20.0989C103.049 20.7931 102.704 21.6847 102.704 22.7718C102.704 23.8607 103.049 24.7523 103.743 25.4447Z" fill="white"/>
<path d="M118.316 24.1673C118.773 25.8165 120.01 26.6428 122.029 26.6428C123.327 26.6428 124.311 26.2041 124.978 25.3266L127.717 26.9071C126.418 28.7854 124.503 29.7228 121.976 29.7228C119.8 29.7228 118.052 29.0638 116.736 27.7494C115.42 26.4332 114.761 24.7734 114.761 22.7718C114.761 20.7896 115.409 19.1351 116.709 17.8101C118.008 16.4851 119.677 15.8208 121.712 15.8208C123.643 15.8208 125.236 16.4886 126.49 17.8224C127.745 19.158 128.372 20.8072 128.372 22.7735C128.372 23.2123 128.328 23.6792 128.24 24.169H118.316V24.1673ZM118.264 21.5331H124.978C124.785 20.638 124.386 19.972 123.78 19.5315C123.174 19.0928 122.485 18.8725 121.713 18.8725C120.801 18.8725 120.047 19.1051 119.449 19.572C118.852 20.0372 118.457 20.6909 118.264 21.5331Z" fill="white"/>
<path d="M144.253 15.8208C145.763 15.8208 146.968 16.3124 147.873 17.2973C148.777 18.2805 149.228 19.5967 149.228 21.2459V29.3563H145.831V21.4838C145.831 20.6944 145.638 20.0813 145.252 19.6425C144.866 19.2038 144.321 18.9835 143.62 18.9835C142.847 18.9835 142.246 19.2373 141.816 19.7465C141.386 20.2557 141.171 20.9922 141.171 21.9577V29.3563H137.774V21.4838C137.774 20.6944 137.58 20.0813 137.194 19.6425C136.808 19.2038 136.264 18.9835 135.561 18.9835C134.807 18.9835 134.206 19.2373 133.758 19.7465C133.311 20.2557 133.087 20.9922 133.087 21.9577V29.3563H129.69V16.1908H133.087V17.5863C133.876 16.4111 135.096 15.8226 136.747 15.8226C138.362 15.8226 139.555 16.4551 140.329 17.7184C141.206 16.4533 142.515 15.8208 144.253 15.8208Z" fill="white"/>
<path d="M159.367 16.1909H163L158.2 29.3775C157.515 31.2575 156.608 32.6231 155.478 33.4759C154.347 34.3269 152.941 34.7092 151.258 34.6229V31.4637C152.171 31.4813 152.895 31.2875 153.431 30.884C153.966 30.4787 154.391 29.8303 154.706 28.9335L149.31 16.1909H153.022L156.456 25.0378L159.367 16.1909Z" fill="white"/>
<path d="M17.0858 17.3464C17.7307 16.7632 18.0531 16.0162 18.0531 15.1052C18.0531 14.011 17.5827 13.1917 16.6418 12.649C17.3166 12.1063 17.6549 11.391 17.6549 10.4994C17.6549 9.61844 17.3413 8.89603 16.7105 8.32691C16.0797 7.7578 15.3062 7.47412 14.3847 7.47412H10.1489V18.2186H14.7071C15.648 18.2204 16.4427 17.9279 17.0858 17.3464ZM12.2668 9.45634H14.3847C14.723 9.45634 14.9979 9.56911 15.2128 9.79464C15.4278 10.0202 15.5353 10.3021 15.5353 10.6386C15.5353 10.9769 15.426 11.2571 15.2058 11.4826C14.9855 11.7081 14.7124 11.8191 14.3847 11.8191H12.2668V9.45634ZM12.2668 13.708H14.7071C15.0648 13.708 15.3626 13.8278 15.5969 14.0692C15.833 14.3088 15.9493 14.6083 15.9493 14.966C15.9493 15.3343 15.8313 15.6391 15.5969 15.8787C15.3608 16.1201 15.0648 16.2399 14.7071 16.2399H12.2668V13.708Z" fill="white"/>
<path d="M30.0857 16.2877H34.4995L35.1831 18.2206H37.331L33.5392 7.47607H30.9139L27.1538 18.2206H29.4408L30.0857 16.2877ZM32.2494 9.9164L33.8 14.3055H30.7764L32.2494 9.9164Z" fill="white"/>
<path d="M22.8085 18.2206H23.0499V16.0622C23.0499 14.8993 23.4358 13.7698 24.1441 12.8483C23.434 11.9268 23.0499 10.7974 23.0499 9.63449V7.47607H22.8085V9.63449C22.8085 10.7974 22.4244 11.9268 21.7144 12.8466C22.4244 13.7681 22.8085 14.8975 22.8085 16.0604V18.2206Z" fill="white"/>
<path d="M10.6618 27.8128C10.512 26.1019 9.31565 24.5672 7.69287 24.0034C7.84264 25.7161 9.03902 27.2507 10.6618 27.8128Z" fill="white"/>
<path d="M15.2993 28.9844C15.3416 30.8838 16.5027 32.7656 18.1819 33.6554C18.1396 31.756 16.9785 29.8742 15.2993 28.9844Z" fill="white"/>
<path d="M14.3599 31.0759C14.515 29.1818 13.5529 27.1908 11.976 26.1318C11.8227 28.0242 12.7829 30.017 14.3599 31.0759Z" fill="white"/>
<path d="M11.9602 30.4789C11.0774 29.0482 9.35774 28.2324 7.69092 28.4526C8.57367 29.8834 10.2951 30.6991 11.9602 30.4789Z" fill="white"/>
<path d="M15.4771 32.8977C13.9654 31.7313 11.7488 31.4247 9.97803 32.133C11.488 33.2994 13.7046 33.6078 15.4771 32.8977Z" fill="white"/>
<path d="M12.7266 35.7259C14.4339 36.5188 16.6329 36.3338 18.1816 35.266C16.476 34.4732 14.2771 34.6582 12.7266 35.7259Z" fill="white"/>
<path d="M15.7344 38.1959C17.5809 38.7985 19.8028 38.351 21.2846 37.0929C21.8819 37.0806 22.3171 37.3149 22.7083 37.7025C21.8978 38.3562 21.2176 39.2795 20.4124 39.713L21.2317 40.157C21.9541 39.3394 22.4263 38.5254 22.9285 37.9422C23.4324 38.5254 23.9029 39.3377 24.6253 40.157L25.4446 39.713C24.6394 39.2795 23.9593 38.358 23.1488 37.7025C23.5399 37.3149 23.9751 37.0806 24.5724 37.0929C26.056 38.351 28.2761 38.7985 30.1226 38.1959C28.6902 36.9343 26.5265 36.4639 24.687 36.9872C24.0051 36.929 23.4377 37.1669 22.9267 37.5334C22.4175 37.1669 21.8484 36.929 21.1665 36.9872C19.3306 36.4639 17.1669 36.9326 15.7344 38.1959Z" fill="white"/>
<path d="M35.1973 27.8128C36.82 27.249 38.0164 25.7143 38.1662 24.0034C36.5452 24.5672 35.3488 26.1019 35.1973 27.8128Z" fill="white"/>
<path d="M27.6768 33.6573C29.3559 32.7675 30.5171 30.8857 30.5593 28.9863C28.8802 29.8744 27.719 31.7561 27.6768 33.6573Z" fill="white"/>
<path d="M21.6773 36.0098C20.2766 34.905 19.5207 32.9721 19.8026 31.2119C21.2016 32.3149 21.9575 34.2478 21.6773 36.0098Z" fill="white"/>
<path d="M24.1814 36.0098C25.5821 34.905 26.338 32.9721 26.0561 31.2119C24.6571 32.3149 23.9012 34.2478 24.1814 36.0098Z" fill="white"/>
<path d="M33.8828 26.1318C32.3059 27.1908 31.3456 29.1818 31.4989 31.0759C33.0759 30.017 34.0361 28.0242 33.8828 26.1318Z" fill="white"/>
<path d="M33.8984 30.4788C35.5635 30.6991 37.2849 29.8833 38.1677 28.4526C36.5009 28.2323 34.7812 29.0499 33.8984 30.4788Z" fill="white"/>
<path d="M30.3813 32.8977C32.1539 33.6078 34.3704 33.2995 35.8805 32.133C34.1097 31.4247 31.8931 31.7331 30.3813 32.8977Z" fill="white"/>
<path d="M27.6768 35.266C29.2273 36.3338 31.4262 36.5188 33.1318 35.7259C31.5813 34.6582 29.3823 34.4732 27.6768 35.266Z" fill="white"/>
<path d="M0 0V1.44482V2.24123V16.7475C0 28.2515 6.30786 38.7563 16.4603 44.1656L22.9303 47.612L29.4003 44.1656C39.5527 38.7581 45.8606 28.2515 45.8606 16.7475V2.24123V0H0ZM43.6176 12.8483V16.7475C43.6176 27.4216 37.7661 37.1688 28.3448 42.1869L22.9285 45.0712L17.5122 42.1869C8.09274 37.1688 2.23947 27.4216 2.23947 16.7475V12.8483V2.24123H43.6176V12.8483Z" fill="white"/>
<path d="M23.1611 25.9151L23.4448 21.8837C24.6588 20.8512 26.049 20.5076 27.6506 20.9992L30.8997 24.5637C27.448 23.9435 24.8808 24.4086 23.1611 25.9151Z" fill="white"/>
<path d="M22.9302 26.8438C25.1256 25.066 27.8496 24.4722 31.1004 25.066L31.3136 25.6228C28.172 24.955 25.4022 25.4395 22.9302 26.8438Z" fill="white"/>
<path d="M22.6995 25.9151L22.4158 21.8837C21.2018 20.8512 19.8116 20.5076 18.21 20.9992L14.9609 24.5637C18.4109 23.9435 20.9781 24.4086 22.6995 25.9151Z" fill="white"/>
<path d="M22.9303 26.8438C20.7349 25.066 18.0109 24.4722 14.7601 25.066L14.5469 25.6228C17.6867 24.955 20.4565 25.4395 22.9303 26.8438Z" fill="white"/>
</svg>
