<svg width="163" height="44" viewBox="0 0 163 44" fill="none" xmlns="http://www.w3.org/2000/svg">
<path d="M54.3296 11.2846C55.3547 11.8774 55.8672 12.7682 55.8672 13.9607C55.8672 14.9544 55.5168 15.7667 54.8143 16.4031C54.1117 17.0394 53.247 17.3567 52.2219 17.3567H47.2534V5.64844H51.8698C52.8739 5.64844 53.7194 5.95701 54.4046 6.57589C55.0914 7.19477 55.4331 7.98451 55.4331 8.9416C55.4331 9.91438 55.067 10.6954 54.3296 11.2846ZM51.8715 7.80668H49.5633V10.3833H51.8715C52.2289 10.3833 52.527 10.2613 52.7676 10.0155C53.0082 9.77142 53.1267 9.4646 53.1267 9.09501C53.1267 8.72717 53.0116 8.42034 52.7763 8.17453C52.5409 7.92872 52.2394 7.80668 51.8715 7.80668ZM52.2219 15.2002C52.6124 15.2002 52.9349 15.0694 53.193 14.8062C53.4492 14.5447 53.5765 14.2134 53.5765 13.8125C53.5765 13.422 53.4492 13.096 53.193 12.8327C52.9367 12.5712 52.6142 12.4405 52.2219 12.4405H49.5616V15.2002H52.2219V15.2002Z" fill="white"/>
<path d="M62.307 8.99414H64.4652V17.3569H62.307V16.4207C61.7822 17.2018 60.9524 17.5923 59.8157 17.5923C58.9022 17.5923 58.1456 17.2854 57.5494 16.6718C56.9532 16.0581 56.6533 15.2109 56.6533 14.1283V8.99414H58.8116V13.8615C58.8116 14.4194 58.9615 14.8465 59.2631 15.1411C59.5629 15.4358 59.9639 15.5839 60.466 15.5839C61.0221 15.5839 61.4684 15.4114 61.8031 15.0662C62.1378 14.721 62.3052 14.2015 62.3052 13.5111V8.99414H62.307Z" fill="white"/>
<path d="M67.6938 11.3683C67.6938 11.5914 67.842 11.7727 68.1366 11.9122C68.4312 12.0517 68.7903 12.1754 69.214 12.28C69.6376 12.3864 70.0612 12.5189 70.4849 12.681C70.9085 12.8414 71.2676 13.1134 71.564 13.4917C71.8586 13.87 72.0068 14.3442 72.0068 14.9125C72.0068 15.7719 71.6843 16.4327 71.0445 16.8947C70.4029 17.3584 69.6027 17.5902 68.6439 17.5902C66.9267 17.5902 65.7569 16.926 65.1328 15.5994L67.0052 14.5464C67.2492 15.2716 67.7966 15.6325 68.6439 15.6325C69.4127 15.6325 69.798 15.3936 69.798 14.9142C69.798 14.6928 69.6498 14.5098 69.3552 14.372C69.0605 14.2326 68.7014 14.1071 68.2778 13.9955C67.8542 13.8839 67.4305 13.7462 67.0069 13.5771C66.5833 13.4097 66.2224 13.1447 65.9278 12.7839C65.6314 12.4213 65.485 11.968 65.485 11.4206C65.485 10.596 65.7883 9.94572 66.3967 9.47153C67.0034 8.99909 67.7583 8.76025 68.6631 8.76025C69.343 8.76025 69.9618 8.91367 70.5197 9.22049C71.0758 9.52732 71.5169 9.9649 71.8412 10.5332L70.0002 11.5374C69.7335 10.9673 69.2872 10.6849 68.6631 10.6849C68.3841 10.6849 68.1523 10.7459 67.9675 10.8679C67.7827 10.99 67.6938 11.1573 67.6938 11.3683Z" fill="white"/>
<path d="M73.7972 7.99159C73.4416 7.99159 73.1313 7.86084 72.8698 7.5976C72.6083 7.3361 72.4775 7.02753 72.4775 6.67015C72.4775 6.31451 72.6083 6.00245 72.8698 5.73397C73.1313 5.46724 73.4416 5.33301 73.7972 5.33301C74.1651 5.33301 74.4806 5.46724 74.7439 5.73397C75.0036 6.00245 75.1361 6.31451 75.1361 6.67015C75.1361 7.02753 75.0036 7.3361 74.7439 7.5976C74.4824 7.8591 74.1668 7.99159 73.7972 7.99159ZM72.7268 17.3568V8.99401H74.8851V17.3568H72.7268Z" fill="white"/>
<path d="M80.8408 8.76025C81.7543 8.76025 82.5109 9.06708 83.1089 9.68073C83.7051 10.2944 84.0032 11.1434 84.0032 12.2243V17.3584H81.8467V12.491C81.8467 11.9331 81.695 11.506 81.3952 11.2114C81.0936 10.9168 80.6909 10.7686 80.1923 10.7686C79.6327 10.7686 79.1881 10.9429 78.8534 11.2863C78.5204 11.6333 78.3513 12.151 78.3513 12.8414V17.3584H76.1948V8.99386H78.3513V9.93003C78.8726 9.15076 79.7024 8.76025 80.8408 8.76025Z" fill="white"/>
<path d="M86.9942 14.0635C87.2854 15.1112 88.0699 15.6342 89.353 15.6342C90.1776 15.6342 90.8017 15.3553 91.2253 14.7974L92.9634 15.8016C92.1388 16.9958 90.922 17.592 89.3181 17.592C87.9356 17.592 86.8269 17.1736 85.9901 16.3368C85.1533 15.5 84.7349 14.447 84.7349 13.1761C84.7349 11.9157 85.148 10.8645 85.9726 10.0224C86.7972 9.1804 87.8572 8.76025 89.1507 8.76025C90.3763 8.76025 91.3892 9.18388 92.1859 10.0311C92.9826 10.8784 93.3818 11.9261 93.3818 13.1761C93.3818 13.4551 93.3539 13.7514 93.2981 14.0635H86.9942V14.0635ZM86.9611 12.3899H91.227C91.1033 11.8198 90.8505 11.3962 90.4652 11.119C90.0799 10.8401 89.6424 10.7006 89.1525 10.7006C88.5719 10.7006 88.0925 10.847 87.7125 11.1434C87.3359 11.4398 87.0831 11.8547 86.9611 12.3899Z" fill="white"/>
<path d="M95.8769 11.3683C95.8769 11.5914 96.0251 11.7727 96.3197 11.9122C96.6143 12.0517 96.9734 12.1754 97.3971 12.28C97.8207 12.3864 98.2443 12.5189 98.6679 12.681C99.0916 12.8414 99.4507 13.1134 99.7471 13.4917C100.042 13.87 100.19 14.3442 100.19 14.9125C100.19 15.7719 99.8674 16.4327 99.2276 16.8947C98.586 17.3584 97.7858 17.5902 96.827 17.5902C95.1098 17.5902 93.94 16.926 93.3159 15.5994L95.1883 14.5464C95.4323 15.2716 95.9797 15.6325 96.827 15.6325C97.5958 15.6325 97.9811 15.3936 97.9811 14.9142C97.9811 14.6928 97.8329 14.5098 97.5383 14.372C97.2436 14.2326 96.8845 14.1071 96.4609 13.9955C96.0373 13.8839 95.6136 13.7462 95.19 13.5771C94.7664 13.4097 94.4055 13.1447 94.1109 12.7839C93.8145 12.4213 93.6681 11.968 93.6681 11.4206C93.6681 10.596 93.9714 9.94572 94.5798 9.47153C95.1865 8.99909 95.9414 8.76025 96.8462 8.76025C97.5261 8.76025 98.1449 8.91367 98.7028 9.22049C99.2589 9.52732 99.7 9.9649 100.024 10.5332L98.1833 11.5374C97.9166 10.9673 97.4703 10.6849 96.8462 10.6849C96.5672 10.6849 96.3354 10.7459 96.1506 10.8679C95.9658 10.99 95.8769 11.1573 95.8769 11.3683Z" fill="white"/>
<path d="M102.466 11.3683C102.466 11.5914 102.615 11.7727 102.909 11.9122C103.206 12.0517 103.565 12.1754 103.988 12.28C104.412 12.3864 104.836 12.5189 105.259 12.681C105.683 12.8414 106.042 13.1134 106.338 13.4917C106.633 13.87 106.781 14.3442 106.781 14.9125C106.781 15.7719 106.46 16.4327 105.819 16.8947C105.177 17.3584 104.377 17.5902 103.42 17.5902C101.703 17.5902 100.531 16.926 99.9072 15.5994L101.78 14.5464C102.024 15.2716 102.573 15.6325 103.42 15.6325C104.189 15.6325 104.572 15.3936 104.572 14.9142C104.572 14.6928 104.426 14.5098 104.13 14.372C103.835 14.2326 103.476 14.1071 103.052 13.9955C102.629 13.8839 102.205 13.7462 101.781 13.5771C101.358 13.4097 100.997 13.1447 100.704 12.7839C100.408 12.4213 100.261 11.968 100.261 11.4206C100.261 10.596 100.563 9.94572 101.173 9.47153C101.78 8.99909 102.536 8.76025 103.439 8.76025C104.119 8.76025 104.738 8.91367 105.298 9.22049C105.854 9.52732 106.295 9.9649 106.619 10.5332L104.778 11.5374C104.511 10.9673 104.065 10.6849 103.441 10.6849C103.162 10.6849 102.93 10.7459 102.747 10.8679C102.564 10.99 102.466 11.1573 102.466 11.3683Z" fill="white"/>
<path d="M118.892 17.3567L118.148 15.249H113.338L112.637 17.3567H110.144L114.243 5.64844H117.102L121.232 17.3567H118.892ZM114.091 13.0925H117.386L115.697 8.30876L114.091 13.0925Z" fill="white"/>
<path d="M126.249 8.76025C127.164 8.76025 127.919 9.06708 128.517 9.68073C129.113 10.2944 129.411 11.1434 129.411 12.2243V17.3584H127.255V12.491C127.255 11.9331 127.103 11.506 126.805 11.2114C126.503 10.9168 126.101 10.7686 125.6 10.7686C125.042 10.7686 124.596 10.9429 124.263 11.2863C123.928 11.6333 123.761 12.151 123.761 12.8414V17.3584H121.604V8.99386H123.761V9.93003C124.282 9.15076 125.114 8.76025 126.249 8.76025Z" fill="white"/>
<path d="M136.937 8.99386H139.096V17.3566H136.937V16.3699C136.29 17.1858 135.382 17.592 134.211 17.592C133.097 17.592 132.14 17.1649 131.343 16.3124C130.546 15.4599 130.147 14.4139 130.147 13.1761C130.147 11.9384 130.546 10.8941 131.343 10.0399C132.14 9.18737 133.097 8.76025 134.211 8.76025C135.382 8.76025 136.29 9.16645 136.937 9.98233V8.99386ZM132.957 14.8741C133.393 15.3152 133.944 15.5331 134.613 15.5331C135.283 15.5331 135.837 15.3134 136.278 14.8741C136.719 14.4331 136.939 13.8682 136.939 13.1761C136.939 12.4858 136.719 11.9192 136.278 11.4781C135.837 11.0388 135.285 10.8191 134.613 10.8191C133.946 10.8191 133.393 11.0388 132.957 11.4781C132.521 11.9192 132.305 12.4858 132.305 13.1761C132.303 13.8682 132.521 14.4331 132.957 14.8741Z" fill="white"/>
<path d="M140.384 17.3565V5.14795H142.54V17.3583H140.384V17.3565Z" fill="white"/>
<path d="M149.298 8.99414H151.606L148.557 17.3709C148.121 18.565 147.546 19.4315 146.826 19.9737C146.107 20.5158 145.213 20.7582 144.145 20.7024V18.6958C144.725 18.7063 145.184 18.5842 145.525 18.328C145.863 18.0717 146.135 17.6585 146.336 17.0902L142.907 8.99414H145.264L147.445 14.6147L149.298 8.99414Z" fill="white"/>
<path d="M153.43 11.3683C153.43 11.5914 153.578 11.7727 153.873 11.9122C154.169 12.0517 154.528 12.1754 154.952 12.28C155.375 12.3864 155.799 12.5189 156.223 12.681C156.646 12.8414 157.005 13.1134 157.302 13.4917C157.596 13.87 157.745 14.3442 157.745 14.9125C157.745 15.7719 157.424 16.4327 156.782 16.8947C156.141 17.3584 155.341 17.5902 154.383 17.5902C152.666 17.5902 151.495 16.926 150.871 15.5994L152.743 14.5464C152.987 15.2716 153.536 15.6325 154.383 15.6325C155.152 15.6325 155.536 15.3936 155.536 14.9142C155.536 14.6928 155.389 14.5098 155.093 14.372C154.798 14.2326 154.439 14.1071 154.016 13.9955C153.592 13.8839 153.168 13.7462 152.745 13.5771C152.321 13.4097 151.96 13.1447 151.667 12.7839C151.371 12.4213 151.225 11.968 151.225 11.4206C151.225 10.596 151.526 9.94572 152.136 9.47153C152.743 8.99909 153.5 8.76025 154.403 8.76025C155.083 8.76025 155.701 8.91367 156.261 9.22049C156.817 9.52732 157.258 9.9649 157.582 10.5332L155.741 11.5374C155.475 10.9673 155.028 10.6849 154.404 10.6849C154.125 10.6849 153.894 10.7459 153.711 10.8679C153.527 10.99 153.43 11.1573 153.43 11.3683Z" fill="white"/>
<path d="M162.999 11.0682H161.109V14.5479C161.109 14.8373 161.18 15.05 161.327 15.1842C161.471 15.3185 161.682 15.3934 161.961 15.4109C162.24 15.4265 162.585 15.4248 163 15.4021V17.3582C161.517 17.5255 160.472 17.3861 159.864 16.9398C159.256 16.4935 158.952 15.6968 158.952 14.5479V11.0682H157.497V8.99364H158.952V7.30435L161.111 6.65234V8.99364H163V11.0682H162.999Z" fill="white"/>
<path d="M56.0029 33.4338L55.2585 31.3261H50.4487L49.7478 33.4338H47.2549L51.3535 21.7256H54.2125L58.3425 33.4338H56.0029ZM51.2018 29.1679H54.4967L52.8074 24.3842L51.2018 29.1679Z" fill="white"/>
<path d="M62.4588 33.6672C61.1984 33.6672 60.1472 33.2436 59.3051 32.3963C58.4631 31.549 58.043 30.5013 58.043 29.2513C58.043 28.0031 58.4631 26.9536 59.3051 26.1063C60.1472 25.2591 61.1984 24.8354 62.4588 24.8354C63.273 24.8354 64.0121 25.0307 64.6816 25.4212C65.351 25.8117 65.8583 26.3347 66.2053 26.9937L64.3486 28.0798C64.1812 27.7346 63.9285 27.4609 63.585 27.2604C63.2468 27.0599 62.865 26.9588 62.4414 26.9588C61.7946 26.9588 61.2594 27.1733 60.8358 27.6039C60.4122 28.0327 60.1995 28.5819 60.1995 29.2513C60.1995 29.9103 60.4122 30.4542 60.8358 30.8813C61.2594 31.3102 61.7946 31.5264 62.4414 31.5264C62.8772 31.5264 63.2643 31.4287 63.6025 31.2335C63.9424 31.0382 64.1969 30.768 64.3643 30.4228L66.2384 31.4932C65.8705 32.1505 65.351 32.677 64.6816 33.0727C64.0121 33.4702 63.273 33.6672 62.4588 33.6672Z" fill="white"/>
<path d="M72.9292 25.071H75.0857V33.4338H72.9292V32.4471C72.2825 33.2629 71.3724 33.6691 70.2027 33.6691C69.0869 33.6691 68.1298 33.242 67.3331 32.3895C66.5347 31.537 66.1372 30.491 66.1372 29.2533C66.1372 28.0155 66.5364 26.9712 67.3331 26.117C68.1298 25.2645 69.0869 24.8374 70.2027 24.8374C71.3724 24.8374 72.2825 25.2436 72.9292 26.0595V25.071ZM68.9492 30.9495C69.3833 31.3906 69.9359 31.6085 70.6054 31.6085C71.2731 31.6085 71.8292 31.3889 72.2703 30.9495C72.7113 30.5085 72.931 29.9436 72.931 29.2515C72.931 28.5612 72.7113 27.9946 72.2703 27.5535C71.8292 27.1142 71.2748 26.8945 70.6054 26.8945C69.9359 26.8945 69.3833 27.1142 68.9492 27.5535C68.5134 27.9946 68.2972 28.5612 68.2972 29.2515C68.2955 29.9436 68.5134 30.5085 68.9492 30.9495Z" fill="white"/>
<path d="M82.7126 21.7256H84.8692V33.4338H82.7126V32.4471C82.0763 33.263 81.1733 33.6692 80.0035 33.6692C78.8756 33.6692 77.915 33.2421 77.1183 32.3896C76.3198 31.5371 75.9224 30.4911 75.9224 29.2533C75.9224 28.0155 76.3216 26.9713 77.1183 26.117C77.915 25.2646 78.8773 24.8374 80.0035 24.8374C81.1733 24.8374 82.0781 25.2436 82.7126 26.0595V21.7256V21.7256ZM78.7413 30.9496C79.1807 31.3906 79.735 31.6085 80.4062 31.6085C81.0739 31.6085 81.6266 31.3889 82.0624 30.9496C82.4982 30.5085 82.7144 29.9437 82.7144 29.2516C82.7144 28.5612 82.4965 27.9946 82.0624 27.5536C81.6266 27.1142 81.0757 26.8946 80.4062 26.8946C79.7368 26.8946 79.1807 27.1142 78.7413 27.5536C78.3003 27.9946 78.0806 28.5612 78.0806 29.2516C78.0789 29.9437 78.3003 30.5085 78.7413 30.9496Z" fill="white"/>
<path d="M87.9967 30.1387C88.2878 31.1864 89.0723 31.7094 90.3554 31.7094C91.18 31.7094 91.8041 31.4305 92.2277 30.8726L93.9676 31.8768C93.143 33.071 91.9261 33.6672 90.3205 33.6672C88.9398 33.6672 87.8293 33.2488 86.9925 32.412C86.1557 31.5752 85.7373 30.5222 85.7373 29.2513C85.7373 27.9909 86.1505 26.9397 86.9751 26.0976C87.7997 25.2556 88.8596 24.8354 90.1532 24.8354C91.3787 24.8354 92.3916 25.2591 93.1883 26.1063C93.985 26.9536 94.3842 28.0013 94.3842 29.2513C94.3842 29.5302 94.3563 29.8266 94.2988 30.1387H87.9967V30.1387ZM87.9635 28.4668H92.2277C92.104 27.8967 91.8512 27.4731 91.4676 27.1959C91.0824 26.917 90.6448 26.7775 90.1532 26.7775C89.5744 26.7775 89.0932 26.924 88.7149 27.2203C88.3384 27.515 88.0873 27.9299 87.9635 28.4668Z" fill="white"/>
<path d="M104.472 24.8355C105.43 24.8355 106.196 25.1476 106.771 25.7717C107.346 26.3958 107.632 27.2326 107.632 28.2803V33.4319H105.476V28.4303C105.476 27.9282 105.352 27.5377 105.108 27.2588C104.864 26.9798 104.515 26.8404 104.071 26.8404C103.581 26.8404 103.197 27.0025 102.925 27.325C102.652 27.6493 102.516 28.1182 102.516 28.7301V33.4302H100.357V28.4285C100.357 27.9264 100.235 27.5359 99.9894 27.257C99.7436 26.9781 99.3984 26.8386 98.9521 26.8386C98.471 26.8386 98.0909 27.0007 97.8068 27.3233C97.5226 27.6475 97.3797 28.1165 97.3797 28.7284V33.4284H95.2231V25.0656H97.3797V25.953C97.8817 25.2051 98.6558 24.832 99.7035 24.832C100.73 24.832 101.489 25.233 101.979 26.0367C102.538 25.2365 103.37 24.8355 104.472 24.8355Z" fill="white"/>
<path d="M114.074 25.0708H116.382L113.333 33.4475C112.897 34.6417 112.322 35.5081 111.602 36.0503C110.883 36.5925 109.991 36.8348 108.92 36.779V34.7725C109.501 34.7829 109.959 34.6609 110.301 34.4046C110.639 34.1483 110.911 33.7352 111.112 33.1668L107.683 25.0708H110.041L112.222 30.6913L114.074 25.0708Z" fill="white"/>
<path d="M15.5942 15.8296C16.1817 15.2979 16.4763 14.6162 16.4763 13.7847C16.4763 12.7857 16.0475 12.0378 15.188 11.5427C15.8034 11.0476 16.112 10.3939 16.112 9.58148C16.112 8.7778 15.8243 8.11707 15.2508 7.5993C14.6772 7.08153 13.9694 6.82178 13.1291 6.82178H9.26416V16.6263H13.4238C14.2815 16.628 15.005 16.3613 15.5942 15.8296ZM11.1958 8.62962H13.1291C13.4377 8.62962 13.6887 8.73247 13.8857 8.93818C14.0827 9.1439 14.1804 9.40017 14.1804 9.70874C14.1804 10.0173 14.081 10.2736 13.8788 10.4793C13.6783 10.685 13.429 10.7879 13.1291 10.7879H11.1958V8.62962ZM11.1958 12.5103H13.4238C13.7498 12.5103 14.0217 12.6201 14.2361 12.8398C14.4506 13.0594 14.5587 13.3331 14.5587 13.6591C14.5587 13.9956 14.4506 14.2728 14.2361 14.4924C14.0217 14.7121 13.7498 14.8219 13.4238 14.8219H11.1958V12.5103Z" fill="white"/>
<path d="M27.4558 14.864H31.4829L32.1053 16.6282H34.0648L30.606 6.82373H28.2107L24.7798 16.6282H26.8666L27.4558 14.864ZM29.431 9.04997L30.8466 13.0562H28.0869L29.431 9.04997Z" fill="white"/>
<path d="M20.8158 16.6282H21.0372V14.6583C21.0372 13.5966 21.3894 12.5663 22.0362 11.726C21.3876 10.8857 21.0372 9.85539 21.0372 8.7937V6.82373H20.8158V8.7937C20.8158 9.85539 20.4654 10.8857 19.8169 11.726C20.4654 12.5663 20.8158 13.5966 20.8158 14.6583V16.6282Z" fill="white"/>
<path d="M9.72965 25.3815C9.59193 23.8195 8.5006 22.4196 7.02051 21.9053C7.15823 23.4673 8.24956 24.8672 9.72965 25.3815Z" fill="white"/>
<path d="M13.9624 26.4512C14.0008 28.184 15.0607 29.903 16.5931 30.7136C16.5547 28.979 15.4948 27.2618 13.9624 26.4512Z" fill="white"/>
<path d="M13.1065 28.3589C13.2478 26.6313 12.3709 24.813 10.9309 23.8472C10.7897 25.5748 11.6665 27.3931 13.1065 28.3589Z" fill="white"/>
<path d="M10.9169 27.8152C10.1114 26.5094 8.54244 25.765 7.02051 25.9655C7.82593 27.2695 9.39493 28.0156 10.9169 27.8152Z" fill="white"/>
<path d="M14.1245 30.022C12.7456 28.9586 10.7233 28.6779 9.10547 29.3247C10.4844 30.3881 12.5067 30.6688 14.1245 30.022Z" fill="white"/>
<path d="M11.6157 32.6023C13.1743 33.3257 15.1791 33.1566 16.5947 32.1821C15.0361 31.4586 13.0296 31.6277 11.6157 32.6023Z" fill="white"/>
<path d="M14.3599 34.8563C16.0457 35.4055 18.0714 34.9975 19.426 33.8504C19.9717 33.84 20.3674 34.0527 20.7248 34.4066C19.9856 35.0045 19.3632 35.8448 18.6293 36.2405L19.3772 36.645C20.0362 35.8989 20.4668 35.1562 20.927 34.6245C21.3855 35.1562 21.8161 35.8989 22.4768 36.645L23.2247 36.2405C22.4908 35.8448 21.8684 35.0045 21.1292 34.4066C21.4866 34.0527 21.8841 33.84 22.428 33.8504C23.7808 34.9975 25.8083 35.4072 27.4941 34.8563C26.1866 33.704 24.2114 33.2751 22.5344 33.7528C21.912 33.6988 21.3942 33.9167 20.9287 34.2514C20.4633 33.9167 19.9455 33.7005 19.3231 33.7528C17.6408 33.2769 15.6674 33.704 14.3599 34.8563Z" fill="white"/>
<path d="M32.1211 25.3815C33.6012 24.8672 34.6943 23.4673 34.8302 21.9053C33.3501 22.4196 32.2588 23.8212 32.1211 25.3815Z" fill="white"/>
<path d="M25.2578 30.7136C26.7902 29.9012 27.8501 28.184 27.8885 26.4512C26.3561 27.2618 25.2962 28.979 25.2578 30.7136Z" fill="white"/>
<path d="M19.7835 32.8597C18.5056 31.8521 17.8152 30.0878 18.0715 28.4805C19.3494 29.4899 20.0397 31.2541 19.7835 32.8597Z" fill="white"/>
<path d="M22.0686 32.8597C23.3464 31.8521 24.0368 30.0878 23.7805 28.4805C22.5027 29.4899 21.8123 31.2541 22.0686 32.8597Z" fill="white"/>
<path d="M30.9215 23.8472C29.4815 24.813 28.6046 26.6313 28.7458 28.3589C30.1858 27.3931 31.061 25.5748 30.9215 23.8472Z" fill="white"/>
<path d="M30.9351 27.8152C32.4552 28.0156 34.0242 27.2712 34.8314 25.9655C33.3112 25.765 31.7405 26.5094 30.9351 27.8152Z" fill="white"/>
<path d="M27.7275 30.022C29.3454 30.6688 31.3676 30.3881 32.7466 29.3247C31.1288 28.6779 29.1065 28.9586 27.7275 30.022Z" fill="white"/>
<path d="M25.2578 32.1821C26.6717 33.1566 28.6782 33.3257 30.2368 32.6023C28.8229 31.6277 26.8164 31.4586 25.2578 32.1821Z" fill="white"/>
<path d="M0 0V1.31796V2.04493V15.2821C0 25.7804 5.75475 35.367 15.0206 40.3024L20.9252 43.4474L26.8299 40.3024C36.0957 35.367 41.8505 25.7804 41.8505 15.2821V2.04667V0H0ZM39.8056 11.7257V15.2838C39.8056 25.0238 34.4657 33.9201 25.8693 38.4998L20.927 41.1322L15.9846 38.4998C7.38825 33.9201 2.04842 25.0256 2.04842 15.2838V11.7257V2.04667H39.809V11.7257H39.8056Z" fill="white"/>
<path d="M21.1362 23.65L21.396 19.9716C22.5047 19.0284 23.7722 18.7164 25.2331 19.1644L28.1985 22.4175C25.05 21.8491 22.707 22.2745 21.1362 23.65Z" fill="white"/>
<path d="M20.9253 24.4976C22.9284 22.8745 25.4144 22.3341 28.3815 22.8745L28.5768 23.3836C25.709 22.7734 23.1829 23.2162 20.9253 24.4976Z" fill="white"/>
<path d="M20.7161 23.65L20.4563 19.9716C19.3475 19.0284 18.0801 18.7164 16.6192 19.1644L13.6538 22.4175C16.8023 21.8491 19.1436 22.2745 20.7161 23.65Z" fill="white"/>
<path d="M20.9254 24.4976C18.9223 22.8745 16.4363 22.3341 13.4692 22.8745L13.2739 23.3836C16.1417 22.7734 18.6695 23.2162 20.9254 24.4976Z" fill="white"/>
</svg>
